<?xml version="1.0" standalone="no"?>
<!DOCTYPE svg PUBLIC "-//W3C//DTD SVG 20010904//EN"
 "http://www.w3.org/TR/2001/REC-SVG-20010904/DTD/svg10.dtd">
<svg version="1.0" xmlns="http://www.w3.org/2000/svg"
 width="300.000000pt" height="300.000000pt" viewBox="0 0 300.000000 300.000000"
 preserveAspectRatio="xMidYMid meet">
<metadata>
Created by potrace 1.10, written by Peter Selinger 2001-2011
</metadata>
<g class="svg-logo" transform="translate(0.000000,300.000000) scale(0.100000,-0.100000)"
fill="#000000" stroke="none">
<path fill="currentColor" d="M1462 2904 c-21 -14 -22 -23 -22 -128 0 -124 9 -148 53 -148 17 0 24
-5 20 -12 -3 -6 -2 -7 3 -3 5 5 9 12 9 15 1 4 6 16 12 27 7 13 11 61 9 124 -2
95 -4 105 -25 122 -28 23 -31 23 -59 3z m48 -35 c4 -8 12 -24 19 -37 11 -22
11 -23 -10 -12 -16 9 -28 9 -45 1 -23 -10 -24 -9 -18 17 12 50 39 65 54 31z
m5 -70 c12 -18 -4 -61 -22 -57 -22 4 -38 32 -30 52 7 18 42 22 52 5z m15 -99
c0 -36 -14 -52 -41 -48 -16 2 -24 9 -23 21 1 9 -2 17 -7 17 -5 0 -9 8 -9 18 0
13 9 17 40 17 36 0 40 -2 40 -25z"/>
<path fill="currentColor" d="M590 2540 c-25 -25 -21 -63 11 -95 19 -19 19 -19 19 2 0 12 -4 25
-10 28 -12 8 -13 42 -1 49 8 5 71 -12 71 -20 0 -1 -11 -14 -25 -28 -14 -14
-25 -31 -25 -39 0 -18 104 -117 123 -117 8 0 25 8 37 18 33 27 19 59 -63 139
-84 83 -107 93 -137 63z m115 -80 c21 -24 13 -51 -15 -47 -30 5 -39 19 -29 45
10 27 21 28 44 2z m65 -49 c5 -11 10 -31 10 -45 0 -31 -29 -35 -64 -9 l-23 18
26 26 c32 33 38 34 51 10z"/>
<path fill="currentColor" d="M2337 2549 c-9 -5 -49 -41 -87 -80 -55 -55 -70 -76 -70 -99 0 -32 18
-47 66 -52 18 -2 28 1 27 9 -2 6 15 30 37 53 22 23 40 50 40 60 0 20 -25 50
-41 50 -18 0 -8 17 16 28 53 24 74 5 49 -43 -19 -36 -8 -47 17 -16 25 31 24
66 -3 85 -26 19 -27 19 -51 5z m-19 -81 c7 -7 12 -20 12 -29 0 -24 -38 -35
-56 -17 -12 12 -12 17 2 36 17 25 25 27 42 10z m-47 -79 l23 -12 -23 -18 c-52
-42 -87 -11 -56 48 17 31 20 33 26 14 5 -11 18 -25 30 -32z"/>
<path fill="currentColor" d="M1650 2529 c-52 -16 -95 -53 -119 -102 -18 -37 -21 -62 -21 -179 l0
-135 26 -11 c17 -8 31 -9 44 -2 16 9 18 6 13 -29 -8 -58 30 -173 79 -237 22
-30 47 -54 54 -54 8 0 -2 21 -26 52 -21 29 -49 79 -62 113 -21 55 -23 76 -23
242 l0 183 28 27 c53 53 131 31 164 -45 23 -56 5 -111 -49 -146 -26 -17 -27
-17 -38 3 -14 27 -56 28 -65 1 -3 -10 -2 -27 4 -37 6 -12 6 -33 -2 -60 -8 -32
-8 -45 2 -57 13 -15 39 -11 56 10 6 6 28 17 50 24 22 7 55 24 73 37 37 28 82
113 82 156 0 25 3 27 22 21 20 -6 21 -5 9 9 -23 28 -51 4 -51 -44 l0 -40 -26
20 c-15 12 -34 21 -43 22 -10 0 -12 2 -3 6 31 12 -3 124 -43 139 -13 5 -13 8
0 21 8 8 15 26 15 40 l0 26 26 -24 c14 -13 33 -36 42 -51 11 -19 28 -30 52
-35 19 -4 38 -8 43 -9 4 -1 12 -2 19 -3 9 -1 9 -4 0 -13 -22 -22 -15 -76 13
-94 13 -8 34 -36 45 -60 14 -27 28 -44 40 -44 26 0 71 -39 86 -76 19 -46 17
-131 -5 -179 -18 -41 -82 -105 -104 -105 -7 0 -21 -3 -33 -6 -18 -5 -20 -1
-18 36 1 23 7 47 13 53 15 15 14 32 -4 47 -13 10 -19 10 -35 -5 -15 -13 -29
-16 -59 -11 -29 4 -42 2 -52 -10 -11 -14 -10 -19 9 -34 40 -33 18 -107 -38
-130 -28 -11 -36 -11 -61 4 -49 29 -98 -5 -85 -59 9 -35 135 -95 214 -102 56
-5 61 -4 77 21 16 24 16 28 1 51 -9 13 -16 26 -16 27 0 2 24 3 53 4 88 1 205
80 223 152 4 12 10 22 15 22 13 0 10 -60 -5 -95 -11 -27 -10 -34 12 -67 13
-21 27 -58 29 -83 5 -38 1 -50 -22 -81 -39 -51 -83 -75 -123 -69 -36 6 -87 29
-97 45 -13 21 -61 10 -90 -20 -51 -54 -130 -48 -161 12 -11 21 -21 28 -37 26
-19 -3 -22 -9 -22 -45 0 -29 -6 -46 -19 -56 -28 -20 -17 -52 19 -54 17 -1 55
-9 85 -18 65 -18 116 -13 163 19 30 21 35 21 55 8 31 -20 101 -32 129 -21 27
10 39 49 23 79 -9 17 -9 21 2 18 32 -6 97 50 98 85 0 16 2 16 24 2 73 -48 109
64 56 175 -11 24 -14 48 -10 77 8 56 -11 125 -47 171 -19 24 -32 54 -36 86 -9
66 -52 141 -101 176 -23 16 -44 33 -48 37 -4 4 -23 26 -42 48 -39 46 -102 81
-161 91 -31 5 -46 14 -66 43 -44 62 -141 93 -219 70z m55 -49 c0 -32 -3 -39
-16 -35 -22 7 -69 -32 -85 -71 -8 -19 -14 -65 -14 -104 0 -66 -1 -70 -22 -71
-17 -1 -19 -2 -6 -6 20 -5 33 -44 24 -69 -3 -9 -15 -14 -28 -12 -20 3 -23 9
-23 46 0 23 -2 42 -5 42 -10 0 7 186 20 215 18 38 68 84 100 91 14 3 30 7 35
9 6 2 12 4 15 4 3 1 5 -17 5 -39z m63 24 c26 -7 31 -51 6 -61 -23 -8 -64 14
-64 35 0 32 13 38 58 26z m272 -159 c19 -23 8 -50 -20 -47 -33 4 -43 16 -35
41 7 24 37 28 55 6z m64 -56 c10 -17 41 -44 69 -62 50 -31 50 -31 24 -40 -14
-4 -29 -18 -33 -30 l-7 -21 -17 21 c-10 12 -29 25 -44 29 -16 4 -28 15 -32 30
-4 13 -14 28 -23 33 -14 9 -14 12 7 31 12 11 22 25 22 30 0 19 16 9 34 -21z
m-244 -49 c22 -12 16 -46 -10 -60 -27 -15 -46 13 -32 45 13 28 16 29 42 15z
m-155 -50 c8 -13 48 -13 61 0 8 8 21 2 43 -19 l31 -29 -70 -27 c-38 -15 -72
-31 -76 -36 -3 -5 -9 -9 -15 -9 -12 0 -12 37 0 45 5 3 8 23 6 45 -4 38 6 52
20 30z m534 -48 c5 -10 12 -38 16 -62 6 -50 24 -100 34 -100 10 0 47 -69 55
-101 4 -18 1 -31 -10 -40 -14 -12 -20 -9 -44 20 -28 33 -28 33 -45 13 -72 -86
-124 -132 -149 -132 -16 0 -25 -4 -21 -10 5 -9 -67 -15 -79 -7 -2 1 -13 -6
-25 -17 -16 -15 -18 -23 -10 -38 6 -11 8 -27 5 -35 -8 -19 -75 -14 -169 12
-17 4 -26 13 -25 23 2 9 -5 16 -20 17 -12 1 -27 6 -33 12 -13 13 -2 40 19 45
19 5 54 -26 44 -38 -4 -5 0 -3 8 3 8 6 30 14 47 18 46 9 83 57 83 105 0 21 -4
42 -10 45 -19 11 -10 22 14 18 13 -3 33 0 43 6 19 9 20 7 15 -39 -6 -61 8 -81
54 -77 49 3 103 44 136 103 38 68 46 136 24 202 -10 29 -15 56 -11 62 10 16
43 12 54 -8z m115 -360 c-4 -19 -2 -43 4 -55 6 -12 15 -36 20 -54 9 -26 8 -31
-4 -26 -8 3 -14 -1 -14 -10 0 -8 5 -17 12 -19 7 -3 9 -14 5 -29 -9 -37 -51
-33 -55 4 -2 15 1 27 6 27 6 0 13 7 16 16 5 13 2 15 -14 11 -15 -4 -20 0 -20
14 0 20 -19 59 -33 70 -4 3 -5 23 -2 45 7 38 8 39 46 39 39 0 39 0 33 -33z
m-534 -323 c8 -1 21 -1 28 0 11 2 11 -2 2 -20 -7 -11 -10 -31 -8 -44 l5 -22
-44 19 c-24 10 -48 16 -53 13 -14 -9 -12 6 5 35 8 14 15 36 15 50 l1 25 17
-27 c9 -16 23 -29 32 -29z m238 31 c18 -11 39 -20 48 -20 12 0 13 -4 4 -21 -7
-11 -9 -32 -6 -45 l6 -24 -44 22 -45 21 -39 -25 -39 -26 0 26 c0 15 -3 35 -7
45 -5 11 -4 17 4 17 7 0 25 11 42 25 36 30 35 30 76 5z m130 -64 c5 -26 -12
-40 -42 -32 -28 7 -36 40 -13 50 23 10 52 1 55 -18z m-268 -23 c0 -21 -4 -24
-27 -21 -30 3 -44 35 -23 48 22 14 50 -1 50 -27z"/>
<path fill="currentColor" d="M1215 2517 c-45 -18 -78 -43 -100 -77 -12 -17 -29 -30 -41 -30 -11 0
-42 -8 -69 -17 -44 -15 -70 -36 -152 -124 -4 -5 -28 -24 -53 -41 -55 -40 -100
-123 -100 -183 0 -28 -8 -52 -25 -75 -23 -32 -55 -116 -55 -146 0 -36 75 -60
97 -31 6 6 14 29 17 51 l7 38 27 -25 c49 -45 92 -61 172 -62 55 -1 86 -7 115
-22 66 -34 109 -39 134 -14 38 38 19 80 -41 95 -39 9 -77 46 -84 82 -5 26 -2
32 15 37 28 7 37 35 19 53 -12 12 -19 13 -42 3 -23 -11 -32 -10 -58 5 -27 16
-32 17 -45 3 -12 -11 -12 -19 -4 -35 6 -11 11 -39 11 -61 0 -47 -15 -52 -74
-27 -49 20 -76 60 -76 113 0 61 25 100 81 125 34 16 52 33 68 63 18 35 80 85
104 85 3 0 10 -23 16 -52 12 -54 48 -110 82 -129 16 -8 26 -7 45 6 31 20 31
54 -2 102 -77 114 53 258 147 163 l30 -30 -3 -197 -3 -198 -32 -67 c-38 -81
-97 -142 -172 -176 -73 -34 -224 -43 -321 -18 -57 15 -65 15 -86 1 -32 -21
-33 -69 -1 -89 33 -21 128 -36 231 -36 148 0 252 38 340 123 27 26 50 47 50
47 1 0 0 -114 -2 -252 -2 -216 0 -250 12 -235 10 13 13 56 12 185 -1 92 -4
172 -8 177 -4 7 8 9 32 7 31 -3 40 0 50 17 8 16 10 125 8 379 l-3 357 -28 48
c-47 80 -156 117 -242 84z m81 -23 c-3 -9 -6 -24 -6 -35 0 -14 -7 -19 -25 -19
-15 0 -41 -14 -63 -34 -37 -34 -37 -35 -37 -112 0 -53 4 -79 13 -82 6 -2 10
-8 6 -13 -3 -5 2 -9 11 -9 11 0 15 -7 13 -22 -3 -24 -34 -36 -49 -21 -14 14
-19 53 -7 53 6 0 8 3 5 6 -4 4 -13 2 -21 -5 -11 -9 -16 -6 -25 20 -6 18 -11
42 -11 54 0 31 -27 52 -48 39 -13 -9 -19 -4 -34 25 -18 36 -22 49 -13 39 3 -3
26 -1 52 3 36 7 54 18 79 48 37 42 94 75 138 79 22 1 27 -1 22 -14z m79 -22
c3 -8 -1 -22 -8 -30 -12 -11 -19 -12 -38 -2 -33 17 -32 16 -20 38 12 23 56 19
66 -6z m59 -51 c21 -39 28 -68 32 -132 2 -45 6 -85 8 -88 3 -4 -13 -5 -33 -3
l-38 4 2 56 c3 71 -10 128 -33 142 -16 9 -16 11 1 20 9 6 17 20 17 30 0 33 15
23 44 -29z m-428 -94 c3 -20 -39 -52 -56 -42 -14 9 -13 38 2 53 18 18 51 11
54 -11z m-70 -102 c-12 -18 -36 -38 -54 -44 -18 -7 -42 -26 -54 -42 -19 -25
-24 -27 -37 -15 -9 7 -22 15 -30 18 -19 5 36 60 83 82 24 11 41 29 51 54 l16
36 23 -29 23 -28 -21 -32z m519 -83 c0 -23 2 -42 5 -42 3 0 4 -37 2 -82 -1
-46 -4 -148 -5 -228 -2 -138 -3 -145 -22 -145 -14 0 -21 8 -23 25 -11 107 -19
111 -97 44 -57 -48 -88 -54 -93 -18 -2 15 6 25 28 36 17 8 32 19 32 24 0 5 15
27 33 49 59 74 97 185 90 262 -2 24 1 33 12 33 8 0 11 5 8 10 -10 17 -16 60
-9 71 3 6 13 9 22 7 13 -3 17 -14 17 -46z m-667 -48 c3 -24 -24 -58 -39 -49
-11 7 -12 58 -2 69 13 13 38 1 41 -20z m2 -102 c0 -28 7 -42 38 -69 20 -18 43
-33 50 -33 6 0 12 -5 12 -11 0 -6 7 -9 15 -5 21 8 45 -3 45 -21 0 -9 5 -11 13
-7 8 5 7 2 -2 -10 -26 -31 -150 0 -190 48 -8 9 -19 16 -26 16 -13 0 -33 -34
-40 -69 -7 -35 -21 -47 -40 -31 -24 20 -18 63 20 136 19 37 35 74 35 83 0 13
7 16 35 13 33 -4 35 -7 35 -40z m206 17 c4 -7 22 -9 46 -6 l40 5 -21 -22 c-12
-12 -21 -33 -21 -47 0 -34 53 -95 88 -102 16 -3 37 -14 46 -23 16 -15 16 -18
1 -34 -14 -15 -22 -16 -58 -7 -23 5 -54 18 -69 29 -30 21 -49 23 -66 6 -10
-10 -11 -6 -6 19 3 17 1 40 -5 51 -8 15 -8 23 0 28 8 4 10 26 6 60 -5 50 3 69
19 43z m231 -352 c14 -8 8 -13 -33 -23 -27 -8 -67 -17 -89 -20 -22 -4 -49 -10
-60 -14 -18 -7 -20 -3 -20 31 0 29 4 39 15 37 32 -4 106 14 130 32 l25 19 7
-26 c4 -15 15 -31 25 -36z m-327 19 c35 0 35 -1 35 -43 0 -34 -3 -42 -15 -37
-8 3 -26 8 -40 10 -14 2 -39 6 -56 9 -38 7 -69 38 -60 61 5 14 14 15 54 9 26
-5 63 -9 82 -9z m112 -41 c-5 -25 -2 -22 -32 -27 -21 -2 -26 1 -28 25 -3 27
-1 28 30 25 27 -2 32 -7 30 -23z"/>
<path fill="currentColor" d="M1294 2195 c-4 -11 -14 -13 -33 -8 -23 6 -24 4 -13 -9 13 -16 35 -18
48 -5 15 15 19 5 19 -43 0 -51 -3 -57 -20 -41 -15 13 -93 22 -99 12 -6 -9 35
-22 77 -26 9 -1 23 -10 31 -21 14 -18 15 -18 34 0 20 17 20 20 5 52 -14 28
-14 38 -4 58 8 13 10 29 7 35 -10 16 -46 13 -52 -4z"/>
<path fill="currentColor" d="M1510 1919 c1 -127 4 -179 11 -167 10 19 7 334 -4 345 -4 3 -7 -77
-7 -178z"/>
<path fill="currentColor" d="M719 1778 c-1 -7 -1 -19 1 -27 1 -7 -9 -33 -22 -57 -18 -34 -20 -46
-10 -56 9 -9 12 -9 12 4 0 8 11 32 25 52 18 26 23 44 19 62 -7 27 -23 42 -25
22z"/>
<path fill="currentColor" d="M630 1767 c0 -8 -8 -29 -17 -48 -25 -49 -28 -135 -8 -189 9 -25 21
-80 26 -122 8 -77 34 -144 70 -183 10 -11 25 -40 33 -63 34 -95 100 -162 191
-192 22 -7 54 -28 71 -46 57 -59 117 -79 221 -78 113 2 203 65 250 174 8 19
17 74 20 123 5 75 3 90 -12 107 -22 24 -43 25 -73 4 -19 -13 -22 -24 -22 -87
-1 -117 -43 -184 -131 -207 -138 -37 -252 73 -236 228 11 103 87 176 184 176
29 0 58 -5 65 -12 21 -21 66 -14 84 13 22 34 10 62 -38 86 -102 52 -219 27
-312 -65 -43 -43 -57 -66 -76 -125 -15 -49 -21 -85 -18 -116 3 -25 3 -45 -1
-45 -3 1 -18 17 -33 37 -29 38 -36 80 -17 115 25 46 -24 103 -68 79 -17 -8
-22 -6 -31 13 -10 23 -9 23 51 22 58 -1 62 0 71 27 7 20 7 34 -2 47 -16 26
-15 31 3 24 8 -3 37 7 64 22 l50 27 20 -24 c10 -13 18 -27 16 -30 -2 -3 -34
-21 -70 -39 -64 -33 -87 -50 -66 -50 6 0 32 11 59 24 126 63 127 64 91 90 -13
9 -22 27 -23 43 -1 34 -35 46 -43 15 -6 -25 -107 -72 -155 -72 -55 0 -118 63
-118 118 0 31 -35 55 -69 49 -29 -6 -29 -6 -15 21 8 15 14 35 14 45 0 9 4 17
8 17 11 0 13 48 2 55 -6 3 -10 0 -10 -8z m38 -179 c-2 -25 -8 -33 -23 -33 -15
0 -21 8 -23 33 -3 29 -1 32 23 32 24 0 26 -3 23 -32z m32 -56 c0 -23 50 -72
73 -72 13 0 15 -5 7 -25 -5 -14 -7 -31 -4 -39 4 -10 -2 -16 -18 -18 -28 -4
-35 -33 -13 -58 12 -14 25 -17 51 -13 l34 6 -2 -57 c-2 -49 -4 -55 -21 -50
-10 3 -29 -2 -42 -10 -21 -14 -25 -14 -25 -2 0 8 -16 37 -35 66 -39 58 -56
109 -53 166 0 21 -6 54 -16 72 -16 32 -16 32 8 32 14 0 28 5 31 10 10 16 25
11 25 -8z m595 -98 c35 -19 48 -43 34 -65 -6 -11 -15 -11 -51 0 -88 26 -163
14 -208 -34 -21 -22 -23 -22 -40 -5 -9 9 -24 20 -31 22 -17 6 58 77 82 78 8 0
19 4 25 9 25 25 140 22 189 -5z m-435 -19 c0 -21 -5 -25 -28 -25 -35 0 -41 6
-35 31 4 13 14 19 34 19 24 0 29 -4 29 -25z m155 -120 c0 -27 -3 -30 -32 -30
-41 0 -43 -14 -3 -22 23 -4 28 -9 20 -18 -11 -13 -15 -56 -11 -122 1 -39 72
-131 113 -147 20 -7 26 -15 22 -26 -4 -8 -7 -25 -7 -37 1 -27 -9 -29 -27 -8
-7 8 -18 15 -24 15 -6 0 -33 20 -60 44 -27 24 -66 49 -86 55 -39 12 -130 76
-130 91 0 6 6 10 14 10 7 0 19 7 26 15 17 20 27 19 35 -5 7 -22 37 -27 53 -7
6 7 12 46 13 87 1 41 5 77 8 80 4 3 15 18 24 33 24 37 52 32 52 -8z m446 -62
c2 -30 -2 -48 -14 -55 -18 -11 -37 12 -37 43 0 24 4 29 25 29 17 0 25 -6 26
-17z m-642 -70 c11 -23 10 -29 -5 -40 -13 -9 -21 -10 -31 -2 -17 14 -17 56 0
62 21 9 23 8 36 -20z m647 -52 c-15 -128 -99 -224 -216 -245 l-36 -6 1 40 c0
38 2 40 30 40 72 0 145 84 153 173 4 52 4 52 39 52 l35 0 -6 -54z m-275 -191
c29 -16 7 -52 -29 -48 -26 3 -28 8 -23 48 1 13 27 13 52 0z"/>
<path fill="currentColor" d="M1629 1752 c22 -32 51 -58 51 -48 0 14 -23 51 -39 63 -28 21 -33 14
-12 -15z"/>
<path fill="currentColor" d="M1526 1727 c-16 -11 -17 -38 -14 -342 3 -323 3 -331 27 -378 29 -59
74 -105 126 -128 51 -22 150 -35 159 -20 4 5 13 8 22 4 24 -9 104 27 148 67
23 20 64 45 91 55 65 23 145 104 170 171 10 27 30 62 43 78 13 17 29 41 34 55
15 37 37 154 31 164 -3 4 3 24 12 43 22 46 13 54 -15 14 -18 -26 -22 -41 -18
-85 l4 -53 -23 15 c-31 20 -70 5 -79 -31 -5 -23 -8 -24 -28 -11 -17 12 -26 12
-46 2 -21 -11 -25 -19 -22 -52 7 -100 6 -111 -17 -144 -28 -39 -21 -78 17 -97
21 -11 20 -12 -29 -33 -28 -11 -58 -21 -65 -21 -8 0 -31 -16 -52 -35 -30 -27
-142 -95 -157 -95 -1 0 0 11 2 24 3 13 0 33 -6 43 -9 18 -7 20 12 16 29 -6 84
32 119 82 22 31 27 48 24 74 -4 29 -3 32 14 28 10 -3 29 2 41 11 21 15 22 14
17 -6 -7 -27 15 -61 27 -42 5 8 4 11 -2 7 -6 -4 -12 17 -16 54 -6 69 -40 143
-78 171 -20 15 -30 17 -52 9 -39 -15 -45 -53 -14 -94 33 -44 46 -95 37 -145
-16 -89 -79 -137 -176 -136 -77 1 -120 25 -154 85 -25 44 -25 45 -28 351 -3
302 -4 308 -25 323 -26 18 -38 19 -61 2z m56 -34 c3 -10 1 -28 -4 -40 -4 -13
-4 -23 1 -23 5 0 9 -78 9 -174 -1 -95 2 -177 5 -182 3 -5 -12 -9 -33 -9 -21 0
-36 3 -34 7 3 4 5 104 6 223 l1 215 23 0 c13 0 24 -7 26 -17z m736 -355 c-2
-23 -9 -34 -22 -36 -26 -5 -38 11 -30 42 4 19 13 26 31 26 21 0 24 -4 21 -32z
m-57 -34 c8 -8 21 -14 27 -14 19 0 14 -15 -13 -40 -14 -13 -25 -29 -25 -36 0
-6 -7 -28 -16 -49 -14 -35 -16 -36 -33 -21 -10 9 -23 16 -31 16 -10 0 -10 3 0
15 9 10 11 34 6 78 -3 35 -3 67 1 71 10 10 65 -4 84 -20z m-240 -26 c30 -37
31 -41 12 -36 -12 3 -31 -1 -42 -9 -19 -13 -22 -12 -37 21 -35 72 15 91 67 24z
m-439 -46 c7 -29 -4 -52 -22 -52 -19 0 -30 19 -30 50 0 33 45 34 52 2z m463
-44 c5 -21 3 -27 -15 -33 -26 -8 -29 -5 -36 28 -3 18 1 29 13 36 21 12 29 5
38 -31z m-448 -75 c1 -43 7 -60 33 -93 39 -49 73 -68 142 -78 48 -7 53 -10 53
-32 0 -23 -4 -25 -45 -26 -70 -2 -117 14 -161 53 -43 39 -73 95 -83 158 -4 22
-9 47 -11 55 -4 11 4 15 33 15 l37 0 2 -52z m603 7 c0 -22 -28 -52 -43 -47
-25 8 -31 36 -14 55 21 24 57 18 57 -8z"/>
<path fill="currentColor" d="M230 1670 c-26 -26 -25 -46 3 -74 17 -17 31 -22 50 -19 29 6 27 23
-2 23 -24 0 -45 25 -37 45 3 8 14 15 24 15 11 0 25 7 32 15 20 24 -45 20 -70
-5z"/>
<path fill="currentColor" d="M317 1672 c-22 -25 -21 -48 3 -72 42 -42 96 -12 87 47 -6 32 -5 33
21 27 62 -15 73 -59 17 -70 -46 -8 -46 -28 0 -21 24 4 33 2 29 -5 -4 -7 -2 -8
5 -4 6 4 9 11 6 16 -3 5 -1 11 5 15 16 10 11 51 -8 68 -27 25 -143 24 -165 -1z
m68 -30 c8 -22 -16 -43 -43 -36 -15 4 -22 14 -22 29 0 36 52 41 65 7z"/>
<path fill="currentColor" d="M2500 1670 c-11 -11 -20 -27 -20 -35 0 -23 37 -55 65 -55 34 0 32 18
-2 22 -19 2 -28 8 -27 20 1 10 -2 15 -7 12 -14 -8 -11 12 4 23 6 6 25 13 40
15 26 5 28 3 22 -19 -3 -16 0 -34 10 -49 32 -50 104 -14 92 46 -6 28 -5 30 13
20 11 -6 20 -8 20 -4 0 4 9 -1 20 -11 19 -17 19 -19 4 -37 -10 -10 -25 -18
-35 -18 -33 0 -29 -18 5 -22 19 -2 32 0 30 4 -4 7 8 12 26 10 14 -1 9 63 -6
79 -13 15 -33 18 -125 18 -96 1 -111 -1 -129 -19z m160 -15 c19 -23 4 -45 -29
-45 -42 0 -51 38 -11 53 23 9 27 8 40 -8z"/>
<path fill="currentColor" d="M1477 1622 c-12 -18 -18 -324 -7 -342 5 -8 12 -12 15 -9 3 4 4 87 3
185 -2 100 -7 173 -11 166z"/>
<path fill="currentColor" d="M2217 1393 c-12 -12 -7 -22 8 -17 8 4 15 10 15 15 0 11 -14 12 -23 2z"/>
<path fill="currentColor" d="M713 934 c-24 -17 -30 -34 -14 -34 5 0 17 7 25 16 40 39 73 -14 40
-64 l-17 -27 -9 26 c-5 14 -20 31 -34 38 -23 10 -29 7 -73 -37 -27 -27 -52
-58 -55 -70 -19 -59 59 -87 102 -37 22 25 8 37 -16 13 -18 -18 -52 -20 -58 -3
-4 9 0 29 8 46 l15 30 17 -26 c24 -37 62 -33 102 11 18 20 38 33 44 29 6 -4
10 -3 9 2 -1 4 2 17 6 27 12 27 -15 70 -45 73 -14 1 -35 -5 -47 -13z m3 -102
c1 -13 -7 -27 -17 -32 -24 -14 -27 -13 -39 11 -9 15 -8 24 1 35 18 22 54 14
55 -14z"/>
<path fill="currentColor" d="M2192 938 c-26 -26 -14 -67 36 -113 54 -51 82 -56 111 -19 12 15 21
21 21 15 0 -7 7 -19 15 -27 34 -35 6 -62 -40 -38 -44 23 -58 18 -33 -11 24
-27 75 -34 96 -13 28 28 13 60 -66 139 -79 80 -112 95 -140 67z m74 -24 l25
-17 -21 -14 c-12 -9 -25 -25 -30 -37 -7 -19 -9 -18 -25 16 -29 60 -3 87 51 52z
m58 -76 c8 -14 7 -21 -5 -33 -14 -14 -18 -14 -38 2 -15 12 -20 24 -15 36 8 22
43 19 58 -5z"/>
<path fill="currentColor" d="M1050 760 c-24 -24 -25 -48 -5 -78 l16 -22 440 0 c425 0 440 1 459
20 11 11 20 25 20 31 0 15 -21 53 -34 61 -6 4 -206 8 -443 8 -420 0 -434 -1
-453 -20z m405 -39 c0 -47 -1 -49 -25 -45 -14 2 -98 5 -187 8 -89 2 -166 7
-172 10 -15 10 -14 41 2 55 9 6 83 12 198 14 101 1 184 3 184 5 0 1 0 -20 0
-47z m477 28 c20 -11 25 -57 6 -64 -7 -2 -96 -6 -198 -7 l-185 -3 0 45 0 45
179 -3 c99 -2 188 -8 198 -13z m-400 -6 c23 -21 23 -35 -2 -50 -26 -17 -65 -2
-67 26 -1 14 6 25 20 31 30 12 28 12 49 -7z"/>
<path fill="currentColor" d="M1046 598 c-21 -30 -20 -54 4 -78 19 -19 34 -20 455 -20 427 0 436 1
456 21 23 23 19 65 -8 86 -13 10 -122 13 -454 13 l-438 0 -15 -22z m898 -21
c8 -12 8 -22 0 -35 -10 -15 -31 -17 -177 -18 -91 -1 -177 -4 -192 -8 -24 -6
-26 -5 -19 16 8 27 9 38 0 58 -5 13 18 14 185 10 169 -4 193 -7 203 -23z
m-492 -19 l4 -39 -188 3 c-192 4 -213 9 -206 44 4 24 39 29 235 30 l151 1 4
-39z m63 32 c4 -6 10 -8 15 -5 14 8 19 -22 7 -38 -28 -34 -77 -23 -77 18 0 21
9 28 42 34 4 0 10 -4 13 -9z"/>
<path fill="currentColor" d="M1045 438 c-19 -28 -19 -48 1 -76 15 -21 20 -22 212 -22 134 0 193 3
186 10 -6 6 -82 11 -188 12 -190 2 -204 6 -192 53 l6 25 179 0 c99 0 187 3
195 6 14 5 15 2 6 -21 -10 -27 0 -62 24 -77 6 -4 113 -8 239 -8 214 0 228 1
247 20 25 25 25 55 0 80 -19 19 -34 20 -459 20 l-440 0 -16 -22z m729 -1 c139
-2 160 -4 170 -20 8 -12 8 -22 0 -35 -10 -15 -33 -17 -200 -19 l-189 -3 0 44
c0 43 1 44 30 39 17 -2 102 -5 189 -6z m-245 -6 c9 -6 11 -18 7 -35 -5 -21
-12 -26 -36 -26 -20 0 -31 6 -35 20 -7 22 2 43 15 35 5 -3 11 -1 15 5 8 12 16
12 34 1z"/>
<path fill="currentColor" d="M1088 323 c7 -3 16 -2 19 1 4 3 -2 6 -13 5 -11 0 -14 -3 -6 -6z"/>
<path fill="currentColor" d="M1848 323 c17 -2 47 -2 65 0 17 2 3 4 -33 4 -36 0 -50 -2 -32 -4z"/>
<path fill="currentColor" d="M1185 281 c-29 -33 -13 -68 38 -81 23 -6 62 -22 87 -36 134 -73 169
-86 214 -80 24 4 81 28 127 55 46 26 100 51 120 55 20 3 45 16 55 27 17 19 17
23 3 47 l-15 27 -305 3 c-293 2 -306 1 -324 -17z m234 -20 c-16 -22 -20 -40
-18 -79 3 -32 0 -48 -6 -44 -6 4 -29 20 -52 35 -23 16 -63 34 -90 41 -36 9
-49 17 -51 33 -3 19 3 22 50 27 29 4 80 8 113 9 33 2 64 4 68 5 4 1 -2 -11
-14 -27z m274 16 c102 -4 133 -16 107 -40 -8 -8 -35 -19 -59 -26 -24 -7 -69
-31 -98 -53 -38 -28 -51 -34 -44 -20 18 34 13 97 -10 126 -11 14 -14 24 -7 21
7 -2 57 -6 111 -8z m-107 -43 c37 -88 -28 -147 -124 -113 -32 11 -42 26 -48
72 -2 17 0 26 6 22 5 -3 8 0 5 7 -12 33 32 55 101 50 41 -4 47 -7 60 -38z"/>
</g>
</svg>
